HIERARCHY
ROOT Hips
{
	OFFSET 0.000000 0.000000 0.000000
	CHANNELS 6 Xposition Yposition Zposition Xrotation Yrotation Zrotation
	JOINT LeftUpLeg_virtual
	{
		OFFSET 0.000000 0.000000 0.000000
		CHANNELS 3 Xrotation Yrotation Zrotation
		JOINT LeftUpLeg
		{
			OFFSET 11.394100 -6.187798 -0.413800
			CHANNELS 3 Xrotation Yrotation Zrotation
			JOINT LeftLeg
			{
				OFFSET 0.430247 -32.302673 3.732800
				CHANNELS 3 Xrotation Yrotation Zrotation
				JOINT LeftFoot
				{
					OFFSET -0.430247 -48.264931 -6.423300
					CHANNELS 3 Xrotation Yrotation Zrotation
					JOINT LeftToeBase
					{
						OFFSET 4.230900 -16.068199 23.438400
						CHANNELS 3 Xrotation Yrotation Zrotation
						JOINT LeftToe_End
						{
							OFFSET 4.510700 0.695400 19.974600
							CHANNELS 3 Xrotation Yrotation Zrotation
							End Site
							{
								OFFSET 0 0 0
							}
						}
					}
				}
			}
		}
	}
	JOINT RightUpLeg_virtual
	{
		OFFSET 0.000000 0.000000 0.000000
		CHANNELS 3 Xrotation Yrotation Zrotation
		JOINT RightUpLeg
		{
			OFFSET -11.333700 -6.187798 -0.413800
			CHANNELS 3 Xrotation Yrotation Zrotation
			JOINT RightLeg
			{
				OFFSET -0.430392 -32.302628 3.733000
				CHANNELS 3 Xrotation Yrotation Zrotation
				JOINT RightFoot
				{
					OFFSET 0.430392 -48.264973 -6.423500
					CHANNELS 3 Xrotation Yrotation Zrotation
					JOINT RightToeBase
					{
						OFFSET -4.230900 -16.068199 23.438400
						CHANNELS 3 Xrotation Yrotation Zrotation
						JOINT RightToe_End
						{
							OFFSET -4.510700 0.695400 19.974600
							CHANNELS 3 Xrotation Yrotation Zrotation
							End Site
							{
								OFFSET 0 0 0
							}
						}
					}
				}
			}
		}
	}
	JOINT Spine_virtual
	{
		OFFSET 0.000000 0.000000 0.000000
		CHANNELS 3 Xrotation Yrotation Zrotation
		JOINT Spine
		{
			OFFSET -0.002400 12.777504 0.315300
			CHANNELS 3 Xrotation Yrotation Zrotation
			JOINT Spine1
			{
				OFFSET -0.002067 5.816869 0.032633
				CHANNELS 3 Xrotation Yrotation Zrotation
				JOINT Spine1_split
				{
					OFFSET -0.002067 5.816869 0.032633
					CHANNELS 3 Xrotation Yrotation Zrotation
					JOINT Spine2
					{
						OFFSET -0.002067 5.816869 0.032633
						CHANNELS 3 Xrotation Yrotation Zrotation
						JOINT Neck_virtual
						{
							OFFSET 0.000000 0.000000 0.000000
							CHANNELS 3 Xrotation Yrotation Zrotation
							JOINT Neck
							{
								OFFSET -0.003700 21.199493 -0.826900
								CHANNELS 3 Xrotation Yrotation Zrotation
								JOINT Head
								{
									OFFSET 0.000000 20.442200 4.834800
									CHANNELS 3 Xrotation Yrotation Zrotation
									JOINT HeadTop_End
									{
										OFFSET 0.000000 34.668396 4.968400
										CHANNELS 3 Xrotation Yrotation Zrotation
										End Site
										{
											OFFSET 0 0 0
										}
									}
								}
							}
						}
						JOINT LeftShoulder_virtual
						{
							OFFSET 0.000000 0.000000 0.000000
							CHANNELS 3 Xrotation Yrotation Zrotation
							JOINT LeftShoulder
							{
								OFFSET 3.288150 8.794197 -1.372250
								CHANNELS 3 Xrotation Yrotation Zrotation
								JOINT LeftShoulder_split
								{
									OFFSET 3.288150 8.794197 -1.372250
									CHANNELS 3 Xrotation Yrotation Zrotation
									JOINT LeftArm
									{
										OFFSET 11.953299 -2.279007 -0.146200
										CHANNELS 3 Xrotation Yrotation Zrotation
										JOINT LeftForeArm
										{
											OFFSET 18.448900 0.000000 0.000000
											CHANNELS 3 Xrotation Yrotation Zrotation
											JOINT LeftHand
											{
												OFFSET 29.527798 0.000000 0.000000
												CHANNELS 3 Xrotation Yrotation Zrotation
												End Site
												{
													OFFSET 0 0 0
												}
											}
										}
									}
								}
							}
						}
						JOINT RightShoulder_virtual
						{
							OFFSET 0.000000 0.000000 0.000000
							CHANNELS 3 Xrotation Yrotation Zrotation
							JOINT RightShoulder
							{
								OFFSET -3.249400 8.794197 -1.372250
								CHANNELS 3 Xrotation Yrotation Zrotation
								JOINT RightShoulder_split
								{
									OFFSET -3.249400 8.794197 -1.372250
									CHANNELS 3 Xrotation Yrotation Zrotation
									JOINT RightArm
									{
										OFFSET -11.953299 -2.279007 -0.146200
										CHANNELS 3 Xrotation Yrotation Zrotation
										JOINT RightForeArm
										{
											OFFSET -18.448900 0.000000 0.000000
											CHANNELS 3 Xrotation Yrotation Zrotation
											JOINT RightHand
											{
												OFFSET -29.527802 0.000000 0.000000
												CHANNELS 3 Xrotation Yrotation Zrotation
												End Site
												{
													OFFSET 0 0 0
												}
											}
										}
									}
								}
							}
						}
					}
				}
			}
		}
	}
}
MOTION
Frames: 4
Frame Time: 0.03333333
-4.099351 83.497078 25.654530 0.000000 0.000000 0.000000 5.925547 -50.149202 5.575350 4.170790 6.989840 -5.583631 38.213054 3.415975 -6.808579 -35.082041 -9.426266 17.629234 -3.507501 -12.499659 -2.926828 0.000000 0.000000 0.000000 4.874902 -49.433378 4.937473 -67.734754 -1.923366 3.803245 19.761713 1.172533 -4.657055 37.466583 7.187107 8.711670 5.047474 -1.662049 2.808834 0.000000 0.000000 0.000000 3.405837 -43.970869 4.030942 14.529279 -7.600640 1.421915 5.288865 -5.816504 2.297027 -0.532738 -2.035247 0.791484 0.000000 0.000000 0.000000 -3.014477 -5.227136 1.456409 1.932266 39.579478 -10.642597 0.977952 27.018845 -6.839554 0.000000 0.000000 0.000000 -1.864656 -6.483154 1.867012 1.221165 -3.318338 -2.613115 -0.069016 2.787791 -3.230069 -0.765223 -3.880903 -28.002942 -0.703770 -26.257704 -2.126301 0.000000 0.000000 0.000000 -3.509254 -6.160078 2.494678 9.721160 -12.317328 2.585466 0.823828 4.042166 -0.641204 2.007427 5.600466 78.097039 -6.549298 11.441342 6.284900 0.000000 0.000000 0.000000 
-2.313567 84.279167 23.099531 0.000000 0.000000 0.000000 6.387869 -54.055920 5.908779 1.541601 7.067302 -7.343551 37.410630 3.948109 -5.856479 -34.735251 -10.638649 17.579017 -2.271912 -13.384361 -0.790842 0.000000 0.000000 0.000000 4.454016 -52.000634 4.850229 -65.380258 -2.798468 3.618168 23.091389 1.035026 -4.768189 34.798584 6.869307 7.241048 8.232134 -0.863316 3.261405 0.000000 0.000000 0.000000 3.305449 -47.365764 4.000753 14.597219 -6.943348 1.123478 4.449319 -5.288196 2.275197 -0.380994 -1.901533 0.648449 0.000000 0.000000 0.000000 -3.975039 -4.580148 1.466927 2.271821 39.961798 -10.993048 1.721105 26.917265 -7.689411 0.000000 0.000000 0.000000 -2.699610 -5.858294 2.035899 1.003039 -2.215963 -2.371853 1.642982 3.938981 -3.608063 -5.830764 -5.219881 -28.674490 -0.213887 -31.135370 -2.196912 0.000000 0.000000 0.000000 -4.426121 -5.672776 2.474884 10.266260 -11.384128 2.543603 0.006724 4.997132 -1.291332 3.885540 11.121701 74.637589 -5.046326 15.040696 7.802397 0.000000 0.000000 0.000000 
-0.671512 85.144188 20.597952 0.000000 0.000000 0.000000 7.506374 -57.508984 6.801252 -1.475476 8.030399 -8.465587 38.291212 5.587859 -5.122147 -34.449343 -10.735779 17.141786 -0.702178 -14.261644 0.445294 0.000000 0.000000 0.000000 4.277891 -54.561279 4.946500 -63.788421 -3.218975 3.336930 27.061978 1.247305 -4.897506 33.927353 6.909270 6.463141 9.046364 -0.304218 3.755515 0.000000 0.000000 0.000000 3.206672 -50.541218 4.053387 15.001310 -6.133178 1.178902 3.756605 -4.647113 2.217602 -0.032359 -1.830165 0.841850 0.000000 0.000000 0.000000 -4.794080 -3.906604 1.456774 3.314348 40.162581 -11.762082 1.976613 26.531839 -8.359308 0.000000 0.000000 0.000000 -3.266682 -5.145610 2.075286 0.889137 -1.291450 -2.538756 3.430699 4.466906 -3.361594 -9.148412 -6.309599 -29.377033 -0.364954 -35.166670 -2.521052 0.000000 0.000000 0.000000 -5.048227 -5.030934 2.356255 10.639474 -10.161146 3.160304 -0.681129 5.355498 -1.865314 6.093856 14.540667 70.565307 -3.087005 19.735896 9.015166 0.000000 0.000000 0.000000 
0.786491 86.416733 18.189306 0.000000 0.000000 0.000000 8.474242 -60.549682 7.747747 -4.490552 9.103705 -9.134793 39.263896 7.906747 -4.310246 -34.127262 -9.271854 15.818308 3.669505 -14.916606 1.094403 0.000000 0.000000 0.000000 3.985219 -57.115394 4.932711 -62.422055 -3.227833 2.883073 30.479610 1.556561 -5.112569 33.724868 6.970530 6.066953 8.123311 0.028071 4.526230 0.000000 0.000000 0.000000 2.742779 -53.266132 3.886396 15.611762 -5.181118 1.494327 3.179426 -3.877264 2.042026 -0.024889 -2.192283 0.963009 0.000000 0.000000 0.000000 -5.386975 -3.200020 1.365183 4.953881 40.196046 -12.727820 1.972670 25.934107 -8.924511 0.000000 0.000000 0.000000 -3.608699 -4.367544 1.916397 0.858028 -0.578444 -3.193332 4.900418 4.308255 -2.708183 -10.784861 -7.433030 -29.887480 -1.254070 -38.819448 -3.148878 0.000000 0.000000 0.000000 -5.388001 -4.278457 2.079279 10.767118 -8.757814 4.306987 -1.013058 5.063143 -2.637474 7.541766 15.619659 66.192675 -0.898417 24.690176 9.684180 0.000000 0.000000 0.000000 
